<svg width="247" height="402" viewBox="0 0 247 402" fill="none" xmlns="http://www.w3.org/2000/svg">
<path fill-rule="evenodd" clip-rule="evenodd" d="M236.054 376.844C242.074 372.492 244.89 368.067 244.89 363.827C244.89 359.586 242.074 355.161 236.054 350.809C230.079 346.49 221.306 342.517 210.284 339.147C188.265 332.414 157.725 328.219 123.904 328.219C90.0842 328.219 59.544 332.414 37.525 339.147C26.5032 342.517 17.7294 346.49 11.7551 350.809C5.73504 355.161 2.91846 359.586 2.91846 363.827C2.91846 368.067 5.73504 372.492 11.7551 376.844C17.7294 381.163 26.5032 385.136 37.525 388.506C59.544 395.239 90.0842 399.434 123.904 399.434C157.725 399.434 188.265 395.239 210.284 388.506C221.306 385.136 230.079 381.163 236.054 376.844ZM123.904 401.434C191.828 401.434 246.89 384.596 246.89 363.827C246.89 343.057 191.828 326.219 123.904 326.219C55.9811 326.219 0.918457 343.057 0.918457 363.827C0.918457 384.596 55.9811 401.434 123.904 401.434Z" fill="#009436"/>
<path d="M8.7926 349.803L4.75684 358.062L48.2124 340.136L100.115 335.537L162.061 331.595L214.151 343.045L244.091 360.033L236.864 347.363L217.717 335.349L163.562 324.086L114.475 320.989L44.4582 327.653L8.7926 349.803Z" fill="white"/>
<path d="M1.3833 363.956L119.383 25.4561L245.883 362.456L1.3833 363.956Z" fill="#A5E8BD"/>
<ellipse cx="123.883" cy="362.956" rx="121" ry="36.5" fill="#7DDBA0"/>
<path fill-rule="evenodd" clip-rule="evenodd" d="M246.763 365.313L244.779 365.064C244.83 364.659 244.855 364.253 244.855 363.846C244.855 363.439 244.83 363.033 244.779 362.628L246.763 362.379C246.824 362.866 246.855 363.355 246.855 363.846C246.855 364.337 246.824 364.826 246.763 365.313ZM246.057 359.537C245.726 358.65 245.294 357.773 244.765 356.906L243.058 357.947C243.526 358.715 243.9 359.479 244.183 360.236L246.057 359.537ZM243.039 354.514L241.504 355.796C240.955 355.138 240.337 354.48 239.651 353.824L241.033 352.379C241.768 353.082 242.438 353.794 243.039 354.514ZM238.823 350.45L237.572 352.01C236.872 351.449 236.124 350.892 235.327 350.339L236.467 348.695C237.299 349.273 238.085 349.858 238.823 350.45ZM234.004 347.09L232.958 348.795C232.172 348.313 231.351 347.836 230.493 347.364L231.458 345.612C232.341 346.098 233.19 346.591 234.004 347.09ZM228.846 344.243L227.952 346.032C227.118 345.615 226.255 345.203 225.365 344.795L226.197 342.977C227.107 343.393 227.99 343.815 228.846 344.243ZM223.516 341.799L222.738 343.642C221.87 343.276 220.979 342.914 220.066 342.557L220.795 340.694C221.723 341.057 222.63 341.426 223.516 341.799ZM218.036 339.654C217.127 339.324 216.201 338.999 215.256 338.678L214.613 340.572C215.545 340.888 216.458 341.209 217.353 341.534L218.036 339.654ZM212.476 337.766L211.871 339.672C210.96 339.383 210.034 339.098 209.092 338.817L209.663 336.9C210.616 337.184 211.554 337.473 212.476 337.766ZM206.827 336.082L206.288 338.008C205.371 337.752 204.44 337.499 203.496 337.251L204.004 335.317C204.958 335.568 205.899 335.823 206.827 336.082ZM201.149 334.589L200.669 336.53C199.736 336.3 198.792 336.073 197.836 335.851L198.289 333.903C199.254 334.127 200.207 334.356 201.149 334.589ZM195.429 333.257L195.001 335.21C194.055 335.003 193.099 334.8 192.133 334.601L192.537 332.642C193.511 332.843 194.475 333.048 195.429 333.257ZM189.67 332.068L189.289 334.032C188.34 333.848 187.382 333.667 186.415 333.491L186.774 331.524C187.748 331.701 188.714 331.883 189.67 332.068ZM183.883 331.012L183.545 332.984C182.594 332.821 181.634 332.661 180.666 332.506L180.983 330.531C181.958 330.688 182.924 330.848 183.883 331.012ZM178.074 330.079L177.777 332.057C176.822 331.913 175.861 331.773 174.893 331.637L175.171 329.657C176.146 329.794 177.113 329.935 178.074 330.079ZM172.249 329.26L171.989 331.243C171.032 331.118 170.069 330.996 169.1 330.878L169.342 328.893C170.317 329.012 171.286 329.134 172.249 329.26ZM166.41 328.549L166.186 330.537C165.227 330.429 164.263 330.324 163.292 330.223L163.499 328.234C164.475 328.335 165.445 328.441 166.41 328.549ZM160.561 327.941L160.371 329.932C159.41 329.84 158.444 329.752 157.473 329.667L157.646 327.675C158.623 327.76 159.595 327.849 160.561 327.941ZM154.704 327.431L154.547 329.424C153.583 329.348 152.616 329.276 151.643 329.207L151.785 327.212C152.762 327.281 153.736 327.354 154.704 327.431ZM148.84 327.014L148.715 329.01C147.749 328.95 146.78 328.892 145.806 328.838L145.917 326.841C146.895 326.896 147.87 326.953 148.84 327.014ZM142.972 326.69L142.876 328.687C141.909 328.641 140.938 328.599 139.963 328.559L140.043 326.561C141.023 326.6 141.999 326.643 142.972 326.69ZM137.099 326.454L137.034 328.453C136.064 328.421 135.092 328.393 134.116 328.368L134.166 326.369C135.147 326.394 136.125 326.422 137.099 326.454ZM131.223 326.305L131.187 328.305C130.216 328.287 129.242 328.273 128.265 328.262L128.287 326.263C129.269 326.273 130.248 326.287 131.223 326.305ZM125.346 326.241L125.339 328.241C124.85 328.24 124.36 328.239 123.869 328.239C123.379 328.239 122.889 328.24 122.4 328.241L122.393 326.241C122.884 326.24 123.376 326.239 123.869 326.239C124.362 326.239 124.854 326.24 125.346 326.241ZM119.452 326.263L119.473 328.262C118.496 328.273 117.522 328.287 116.551 328.305L116.515 326.305C117.491 326.287 118.47 326.273 119.452 326.263ZM113.572 326.369L113.623 328.368C112.647 328.393 111.674 328.421 110.705 328.453L110.64 326.454C111.614 326.422 112.591 326.394 113.572 326.369ZM107.695 326.561L107.775 328.559C106.801 328.599 105.829 328.641 104.862 328.687L104.767 326.69C105.739 326.643 106.715 326.6 107.695 326.561ZM101.822 326.841L101.932 328.838C100.959 328.892 99.9893 328.95 99.0239 329.01L98.8981 327.014C99.8685 326.953 100.843 326.896 101.822 326.841ZM95.9538 327.212L96.0953 329.207C95.123 329.276 94.1551 329.348 93.1919 329.424L93.0345 327.431C94.003 327.354 94.9761 327.281 95.9538 327.212ZM90.0923 327.675L90.2659 329.667C89.2947 329.752 88.3285 329.84 87.3675 329.932L87.1774 327.941C88.144 327.849 89.1156 327.76 90.0923 327.675ZM84.2392 328.234L84.4461 330.223C83.476 330.324 82.5115 330.429 81.5526 330.537L81.3286 328.549C82.2932 328.441 83.2634 328.335 84.2392 328.234ZM78.3967 328.893L78.6384 330.878C77.6693 330.996 76.7063 331.118 75.7497 331.243L75.49 329.26C76.4527 329.134 77.4216 329.012 78.3967 328.893ZM72.5675 329.657L72.8459 331.637C71.8776 331.773 70.9161 331.913 69.9619 332.057L69.6644 330.079C70.6251 329.935 71.5929 329.794 72.5675 329.657ZM66.7552 330.531L67.0724 332.506C66.1048 332.661 65.145 332.821 64.1931 332.984L63.8555 331.012C64.8142 330.848 65.7809 330.688 66.7552 330.531ZM60.9645 331.524L61.3234 333.491C60.3564 333.667 59.3982 333.848 58.4491 334.032L58.0682 332.068C59.0248 331.883 59.9903 331.701 60.9645 331.524ZM55.2018 332.642L55.6056 334.601C54.6395 334.8 53.6834 335.003 52.7377 335.21L52.3096 333.257C53.2635 333.048 54.2277 332.843 55.2018 332.642ZM49.4493 333.903L49.9027 335.851C48.9468 336.073 48.0024 336.3 47.0695 336.53L46.5894 334.589C47.5313 334.356 48.4847 334.127 49.4493 333.903ZM43.7343 335.317L44.2428 337.251C43.2989 337.499 42.368 337.752 41.4503 338.008L40.9119 336.082C41.8397 335.823 42.7807 335.568 43.7343 335.317ZM38.0757 336.9C37.1228 337.184 36.1849 337.473 35.2624 337.766L35.8678 339.672C36.7785 339.383 37.7049 339.098 38.6465 338.817L38.0757 336.9ZM32.4826 338.678L33.1252 340.572C32.1938 340.888 31.2806 341.209 30.386 341.534L29.7026 339.654C30.6112 339.324 31.538 338.999 32.4826 338.678ZM26.9439 340.694L27.6721 342.557C26.7594 342.914 25.8686 343.276 25.0002 343.642L24.2228 341.799C25.1081 341.426 26.0154 341.057 26.9439 340.694ZM21.5417 342.977L22.3738 344.795C21.4837 345.203 20.621 345.615 19.7862 346.032L18.8922 344.243C19.7484 343.815 20.6318 343.393 21.5417 342.977ZM16.2807 345.612L17.2452 347.364C16.3879 347.836 15.5662 348.313 14.7807 348.795L13.735 347.09C14.5487 346.591 15.3976 346.098 16.2807 345.612ZM11.2714 348.695L12.4116 350.339C11.6147 350.892 10.8661 351.449 10.1664 352.01L8.9152 350.45C9.65357 349.858 10.4394 349.273 11.2714 348.695ZM6.70566 352.379L8.08781 353.824C7.40156 354.48 6.78397 355.138 6.23472 355.796L4.69953 354.514C5.30098 353.794 5.97043 353.082 6.70566 352.379ZM2.97334 356.906L4.68064 357.947C4.21213 358.715 3.83826 359.479 3.55565 360.236L1.68178 359.537C2.01262 358.65 2.44433 357.773 2.97334 356.906ZM0.975161 362.379C0.914107 362.866 0.883301 363.355 0.883301 363.846C0.883301 364.337 0.914104 364.826 0.975152 365.313L2.9596 365.064C2.90883 364.659 2.8833 364.253 2.8833 363.846C2.8833 363.439 2.90884 363.033 2.95961 362.628L0.975161 362.379ZM1.68176 368.155L3.55563 367.456C3.83824 368.214 4.21211 368.977 4.68061 369.745L2.9733 370.786C2.4443 369.919 2.01259 369.042 1.68176 368.155ZM4.69949 373.178L6.23468 371.896C6.78394 372.554 7.40152 373.212 8.08777 373.868L6.70562 375.313C5.97039 374.61 5.30094 373.899 4.69949 373.178ZM8.91516 377.242L10.1664 375.682C10.866 376.243 11.6147 376.801 12.4116 377.354L11.2714 378.997C10.4394 378.419 9.65353 377.834 8.91516 377.242ZM13.735 380.602L14.7807 378.897C15.5661 379.379 16.3879 379.856 17.2452 380.328L16.2806 382.08C15.3975 381.594 14.5486 381.101 13.735 380.602ZM18.8922 383.449L19.7861 381.66C20.621 382.077 21.4837 382.489 22.3738 382.897L21.5417 384.715C20.6318 384.299 19.7484 383.877 18.8922 383.449ZM24.2228 385.893L25.0002 384.05C25.8686 384.417 26.7593 384.778 27.672 385.135L26.9439 386.998C26.0153 386.635 25.1081 386.266 24.2228 385.893ZM29.7026 388.038L30.386 386.158C31.2806 386.483 32.1938 386.804 33.1252 387.12L32.4825 389.014C31.538 388.694 30.6112 388.368 29.7026 388.038ZM35.2624 389.927L35.8678 388.02C36.7785 388.31 37.7049 388.594 38.6465 388.875L38.0757 390.792C37.1228 390.508 36.1849 390.22 35.2624 389.927ZM40.9119 391.61L41.4503 389.684C42.368 389.94 43.2989 390.193 44.2428 390.441L43.7343 392.375C42.7807 392.124 41.8397 391.869 40.9119 391.61ZM46.5894 393.103L47.0695 391.162C48.0023 391.392 48.9468 391.619 49.9027 391.841L49.4493 393.789C48.4847 393.565 47.5313 393.336 46.5894 393.103ZM52.3096 394.435L52.7377 392.482C53.6834 392.689 54.6395 392.892 55.6056 393.091L55.2018 395.05C54.2277 394.849 53.2635 394.644 52.3096 394.435ZM58.0682 395.624L58.4491 393.66C59.3983 393.844 60.3564 394.025 61.3234 394.201L60.9645 396.169C59.9903 395.991 59.0248 395.809 58.0682 395.624ZM63.8555 396.68L64.1931 394.708C65.145 394.871 66.1048 395.031 67.0724 395.186L66.7552 397.161C65.7809 397.004 64.8142 396.844 63.8555 396.68ZM69.6644 397.613L69.9618 395.635C70.9161 395.779 71.8775 395.919 72.8459 396.055L72.5675 398.035C71.5929 397.898 70.6251 397.758 69.6644 397.613ZM75.49 398.432L75.7497 396.449C76.7063 396.574 77.6693 396.696 78.6384 396.814L78.3967 398.799C77.4216 398.68 76.4526 398.558 75.49 398.432ZM81.3286 399.143C82.2931 399.252 83.2634 399.357 84.2392 399.458L84.4461 397.469C83.476 397.368 82.5115 397.263 81.5526 397.155L81.3286 399.143ZM87.1774 399.751L87.3675 397.76C88.3285 397.852 89.2947 397.94 90.2659 398.025L90.0922 400.017C89.1156 399.932 88.144 399.843 87.1774 399.751ZM93.0344 400.262L93.1918 398.268C94.1551 398.344 95.1229 398.416 96.0953 398.485L95.9537 400.48C94.9761 400.411 94.003 400.338 93.0344 400.262ZM98.898 400.678L99.0239 398.682C99.9892 398.743 100.959 398.8 101.932 398.854L101.822 400.851C100.843 400.797 99.8685 400.739 98.898 400.678ZM104.767 401.002L104.862 399.005C105.829 399.051 106.801 399.093 107.775 399.133L107.695 401.131C106.715 401.092 105.739 401.049 104.767 401.002ZM110.639 401.238L110.705 399.239C111.674 399.271 112.647 399.299 113.623 399.324L113.572 401.323C112.591 401.299 111.614 401.27 110.639 401.238ZM116.515 401.387L116.551 399.388C117.522 399.405 118.496 399.419 119.473 399.43L119.452 401.43C118.47 401.419 117.491 401.405 116.515 401.387ZM122.393 401.451L122.4 399.451C122.889 399.452 123.379 399.453 123.869 399.453C124.36 399.453 124.85 399.452 125.339 399.451L125.346 401.451C124.854 401.452 124.362 401.453 123.869 401.453C123.376 401.453 122.884 401.452 122.393 401.451ZM128.287 401.43L128.265 399.43C129.242 399.419 130.216 399.405 131.187 399.388L131.223 401.387C130.248 401.405 129.269 401.419 128.287 401.43ZM134.166 401.323L134.116 399.324C135.092 399.299 136.064 399.271 137.034 399.239L137.099 401.238C136.125 401.27 135.147 401.299 134.166 401.323ZM140.043 401.131L139.963 399.133C140.938 399.093 141.909 399.051 142.876 399.005L142.972 401.002C141.999 401.049 141.023 401.092 140.043 401.131ZM145.917 400.851L145.806 398.854C146.78 398.8 147.749 398.743 148.715 398.682L148.84 400.678C147.87 400.739 146.895 400.797 145.917 400.851ZM151.785 400.48L151.643 398.485C152.616 398.416 153.583 398.344 154.547 398.268L154.704 400.262C153.736 400.338 152.762 400.411 151.785 400.48ZM157.646 400.017C158.623 399.932 159.595 399.843 160.561 399.751L160.371 397.76C159.41 397.852 158.444 397.94 157.473 398.025L157.646 400.017ZM163.499 399.458L163.292 397.469C164.262 397.368 165.227 397.263 166.186 397.155L166.41 399.143C165.445 399.252 164.475 399.357 163.499 399.458ZM169.342 398.799L169.1 396.814C170.069 396.696 171.032 396.574 171.989 396.449L172.248 398.432C171.286 398.558 170.317 398.68 169.342 398.799ZM175.171 398.035L174.893 396.055C175.861 395.919 176.822 395.779 177.777 395.635L178.074 397.613C177.113 397.758 176.146 397.898 175.171 398.035ZM180.983 397.161C181.958 397.004 182.924 396.844 183.883 396.68L183.545 394.708C182.594 394.871 181.634 395.031 180.666 395.186L180.983 397.161ZM186.774 396.169L186.415 394.201C187.382 394.025 188.34 393.844 189.289 393.66L189.67 395.624C188.714 395.809 187.748 395.991 186.774 396.169ZM192.537 395.05L192.133 393.091C193.099 392.892 194.055 392.689 195.001 392.482L195.429 394.435C194.475 394.644 193.511 394.849 192.537 395.05ZM198.289 393.789L197.836 391.841C198.792 391.619 199.736 391.392 200.669 391.162L201.149 393.103C200.207 393.336 199.254 393.565 198.289 393.789ZM204.004 392.375L203.496 390.441C204.44 390.193 205.37 389.94 206.288 389.684L206.827 391.61C205.899 391.869 204.958 392.124 204.004 392.375ZM209.663 390.792L209.092 388.875C210.034 388.594 210.96 388.31 211.871 388.02L212.476 389.927C211.554 390.22 210.616 390.508 209.663 390.792ZM215.256 389.014L214.613 387.12C215.545 386.804 216.458 386.483 217.352 386.158L218.036 388.038C217.127 388.368 216.201 388.694 215.256 389.014ZM220.795 386.998L220.066 385.135C220.979 384.778 221.87 384.417 222.738 384.05L223.516 385.893C222.63 386.266 221.723 386.635 220.795 386.998ZM226.197 384.715L225.365 382.897C226.255 382.489 227.118 382.077 227.952 381.66L228.846 383.449C227.99 383.877 227.107 384.299 226.197 384.715ZM231.458 382.08L230.493 380.328C231.351 379.856 232.172 379.379 232.958 378.897L234.004 380.602C233.19 381.101 232.341 381.594 231.458 382.08ZM236.467 378.997L235.327 377.354C236.124 376.801 236.872 376.243 237.572 375.682L238.823 377.242C238.085 377.834 237.299 378.419 236.467 378.997ZM241.033 375.314L239.651 373.868C240.337 373.212 240.955 372.554 241.504 371.896L243.039 373.178C242.438 373.899 241.768 374.611 241.033 375.314ZM244.765 370.786L243.058 369.745C243.526 368.977 243.9 368.214 244.183 367.456L246.057 368.155C245.726 369.042 245.294 369.919 244.765 370.786Z" fill="#009436"/>
<path fill-rule="evenodd" clip-rule="evenodd" d="M119.307 23.9038L246.043 358.839L244.24 360.254L119.371 30.1273L3.28005 360.483L1.50293 359.135L119.307 23.9038Z" fill="#009436"/>
<path d="M246.349 362.315L120.295 362.315" stroke="#545454" stroke-width="2" stroke-dasharray="3 3"/>
<path d="M119.379 27.397L119.379 362.692" stroke="#545454" stroke-width="2" stroke-dasharray="3 3"/>
<path d="M102.24 7.49463L98.7085 16.2212H97.2319L93.7241 7.49463H95.3179L98.021 14.4399L100.701 7.49463H102.24ZM111.466 12.0103H105.037C105.037 12.5467 105.117 13.0155 105.279 13.4165C105.44 13.8123 105.662 14.1379 105.943 14.3931C106.214 14.6431 106.534 14.8306 106.904 14.9556C107.279 15.0806 107.69 15.1431 108.138 15.1431C108.732 15.1431 109.328 15.0259 109.927 14.7915C110.531 14.5519 110.961 14.3175 111.216 14.0884H111.294V15.6899C110.8 15.8983 110.294 16.0728 109.779 16.2134C109.263 16.354 108.722 16.4243 108.154 16.4243C106.706 16.4243 105.576 16.0337 104.763 15.2524C103.951 14.466 103.544 13.3514 103.544 11.9087C103.544 10.4816 103.932 9.3488 104.708 8.51025C105.49 7.67171 106.516 7.25244 107.787 7.25244C108.964 7.25244 109.87 7.59619 110.505 8.28369C111.146 8.97119 111.466 9.94775 111.466 11.2134V12.0103ZM110.037 10.8853C110.031 10.1144 109.836 9.51807 109.451 9.09619C109.07 8.67432 108.49 8.46338 107.708 8.46338C106.922 8.46338 106.294 8.69515 105.826 9.15869C105.362 9.62223 105.099 10.1978 105.037 10.8853H110.037ZM119.138 9.09619H119.06C118.841 9.04411 118.628 9.00765 118.419 8.98682C118.216 8.96077 117.974 8.94775 117.693 8.94775C117.24 8.94775 116.802 9.04932 116.38 9.25244C115.958 9.45036 115.552 9.70817 115.162 10.0259V16.2212H113.693V7.49463H115.162V8.78369C115.745 8.31494 116.258 7.98421 116.701 7.7915C117.149 7.59359 117.604 7.49463 118.068 7.49463C118.323 7.49463 118.508 7.50244 118.623 7.51807C118.737 7.52848 118.909 7.55192 119.138 7.58838V9.09619ZM125.052 16.1431C124.776 16.216 124.474 16.2759 124.146 16.3228C123.823 16.3696 123.534 16.3931 123.279 16.3931C122.388 16.3931 121.711 16.1535 121.248 15.6743C120.784 15.1951 120.552 14.4269 120.552 13.3696V8.729H119.56V7.49463H120.552V4.98682H122.021V7.49463H125.052V8.729H122.021V12.7056C122.021 13.1639 122.031 13.5233 122.052 13.7837C122.073 14.0389 122.146 14.2785 122.271 14.5024C122.386 14.7108 122.542 14.8644 122.74 14.9634C122.943 15.0571 123.25 15.104 123.662 15.104C123.901 15.104 124.151 15.0701 124.412 15.0024C124.672 14.9295 124.86 14.8696 124.974 14.8228H125.052V16.1431ZM134.138 12.0103H127.708C127.708 12.5467 127.789 13.0155 127.951 13.4165C128.112 13.8123 128.333 14.1379 128.615 14.3931C128.886 14.6431 129.206 14.8306 129.576 14.9556C129.951 15.0806 130.362 15.1431 130.81 15.1431C131.404 15.1431 132 15.0259 132.599 14.7915C133.203 14.5519 133.633 14.3175 133.888 14.0884H133.966V15.6899C133.472 15.8983 132.966 16.0728 132.451 16.2134C131.935 16.354 131.393 16.4243 130.826 16.4243C129.378 16.4243 128.248 16.0337 127.435 15.2524C126.623 14.466 126.216 13.3514 126.216 11.9087C126.216 10.4816 126.604 9.3488 127.38 8.51025C128.162 7.67171 129.188 7.25244 130.458 7.25244C131.636 7.25244 132.542 7.59619 133.177 8.28369C133.818 8.97119 134.138 9.94775 134.138 11.2134V12.0103ZM132.708 10.8853C132.703 10.1144 132.508 9.51807 132.123 9.09619C131.742 8.67432 131.162 8.46338 130.38 8.46338C129.594 8.46338 128.966 8.69515 128.498 9.15869C128.034 9.62223 127.771 10.1978 127.708 10.8853H132.708ZM143.919 16.2212H142.068L139.591 12.8696L137.099 16.2212H135.388L138.794 11.8696L135.419 7.49463H137.271L139.732 10.7915L142.201 7.49463H143.919L140.49 11.7915L143.919 16.2212Z" fill="#202020"/>
<path d="M135.395 235.317H133.926V230.349C133.926 229.948 133.902 229.573 133.855 229.224C133.809 228.869 133.723 228.593 133.598 228.396C133.467 228.177 133.28 228.015 133.035 227.911C132.79 227.802 132.473 227.747 132.082 227.747C131.681 227.747 131.262 227.846 130.824 228.044C130.387 228.242 129.967 228.494 129.566 228.802V235.317H128.098V223.161H129.566V227.56C130.025 227.179 130.499 226.882 130.988 226.669C131.478 226.455 131.98 226.349 132.496 226.349C133.439 226.349 134.158 226.632 134.652 227.2C135.147 227.768 135.395 228.586 135.395 229.653V235.317ZM145.527 231.106H139.098C139.098 231.643 139.178 232.112 139.34 232.513C139.501 232.909 139.723 233.234 140.004 233.489C140.275 233.739 140.595 233.927 140.965 234.052C141.34 234.177 141.751 234.239 142.199 234.239C142.793 234.239 143.389 234.122 143.988 233.888C144.592 233.648 145.022 233.414 145.277 233.185H145.355V234.786C144.861 234.994 144.355 235.169 143.84 235.31C143.324 235.45 142.783 235.521 142.215 235.521C140.767 235.521 139.637 235.13 138.824 234.349C138.012 233.562 137.605 232.448 137.605 231.005C137.605 229.578 137.993 228.445 138.77 227.606C139.551 226.768 140.577 226.349 141.848 226.349C143.025 226.349 143.931 226.692 144.566 227.38C145.207 228.067 145.527 229.044 145.527 230.31V231.106ZM144.098 229.981C144.092 229.211 143.897 228.614 143.512 228.192C143.132 227.771 142.551 227.56 141.77 227.56C140.983 227.56 140.355 227.791 139.887 228.255C139.423 228.718 139.16 229.294 139.098 229.981H144.098ZM149.332 225.13H147.676V223.606H149.332V225.13ZM149.238 235.317H147.77V226.591H149.238V235.317ZM159.223 234.325C159.223 235.804 158.887 236.89 158.215 237.583C157.543 238.276 156.509 238.622 155.113 238.622C154.65 238.622 154.197 238.588 153.754 238.521C153.316 238.458 152.884 238.367 152.457 238.247V236.747H152.535C152.775 236.841 153.155 236.955 153.676 237.091C154.197 237.231 154.717 237.302 155.238 237.302C155.738 237.302 156.152 237.242 156.48 237.122C156.809 237.002 157.064 236.836 157.246 236.622C157.428 236.419 157.559 236.174 157.637 235.888C157.715 235.601 157.754 235.281 157.754 234.927V234.13C157.311 234.484 156.887 234.75 156.48 234.927C156.079 235.099 155.566 235.185 154.941 235.185C153.9 235.185 153.072 234.81 152.457 234.06C151.848 233.304 151.543 232.242 151.543 230.872C151.543 230.122 151.647 229.476 151.855 228.935C152.069 228.388 152.358 227.916 152.723 227.521C153.061 227.151 153.473 226.864 153.957 226.661C154.441 226.453 154.923 226.349 155.402 226.349C155.908 226.349 156.329 226.401 156.668 226.505C157.012 226.604 157.374 226.757 157.754 226.966L157.848 226.591H159.223V234.325ZM157.754 232.919V228.161C157.363 227.984 156.999 227.859 156.66 227.786C156.327 227.708 155.993 227.669 155.66 227.669C154.853 227.669 154.217 227.94 153.754 228.481C153.29 229.023 153.059 229.81 153.059 230.841C153.059 231.82 153.23 232.562 153.574 233.067C153.918 233.573 154.488 233.825 155.285 233.825C155.712 233.825 156.139 233.744 156.566 233.583C156.999 233.416 157.395 233.195 157.754 232.919ZM169.41 235.317H167.941V230.349C167.941 229.948 167.918 229.573 167.871 229.224C167.824 228.869 167.738 228.593 167.613 228.396C167.483 228.177 167.296 228.015 167.051 227.911C166.806 227.802 166.488 227.747 166.098 227.747C165.697 227.747 165.277 227.846 164.84 228.044C164.402 228.242 163.983 228.494 163.582 228.802V235.317H162.113V223.161H163.582V227.56C164.04 227.179 164.514 226.882 165.004 226.669C165.493 226.455 165.996 226.349 166.512 226.349C167.454 226.349 168.173 226.632 168.668 227.2C169.163 227.768 169.41 228.586 169.41 229.653V235.317ZM176.77 235.239C176.493 235.312 176.191 235.372 175.863 235.419C175.54 235.466 175.251 235.489 174.996 235.489C174.105 235.489 173.428 235.25 172.965 234.771C172.501 234.291 172.27 233.523 172.27 232.466V227.825H171.277V226.591H172.27V224.083H173.738V226.591H176.77V227.825H173.738V231.802C173.738 232.26 173.749 232.619 173.77 232.88C173.79 233.135 173.863 233.375 173.988 233.599C174.103 233.807 174.259 233.961 174.457 234.06C174.66 234.153 174.967 234.2 175.379 234.2C175.618 234.2 175.868 234.166 176.129 234.099C176.389 234.026 176.577 233.966 176.691 233.919H176.77V235.239Z" fill="#202020"/>
<path d="M180.59 153.939C179.846 154.225 179.117 154.15 178.403 153.716C177.692 153.286 177.131 152.539 176.722 151.474C176.491 150.871 176.349 150.29 176.295 149.73C176.249 149.173 176.245 148.692 176.285 148.286L177.824 147.695L177.852 147.768C177.692 148.326 177.617 148.907 177.626 149.512C177.64 150.115 177.74 150.659 177.927 151.146C178.158 151.748 178.437 152.183 178.762 152.448C179.087 152.714 179.459 152.767 179.877 152.606C180.198 152.483 180.405 152.297 180.5 152.049C180.594 151.801 180.599 151.392 180.514 150.822C180.483 150.61 180.436 150.335 180.373 149.997C180.312 149.663 180.266 149.355 180.235 149.071C180.15 148.283 180.232 147.669 180.481 147.227C180.737 146.789 181.132 146.467 181.667 146.261C182.002 146.133 182.344 146.079 182.693 146.102C183.044 146.129 183.39 146.238 183.732 146.431C184.065 146.615 184.377 146.892 184.669 147.259C184.968 147.63 185.217 148.076 185.417 148.596C185.604 149.082 185.731 149.596 185.8 150.139C185.876 150.685 185.892 151.155 185.849 151.551L184.383 152.114L184.355 152.041C184.478 151.592 184.531 151.084 184.514 150.516C184.501 149.946 184.403 149.42 184.218 148.939C184.026 148.438 183.766 148.052 183.439 147.782C183.117 147.51 182.766 147.446 182.387 147.592C182.051 147.721 181.839 147.922 181.749 148.197C181.657 148.466 181.645 148.85 181.714 149.348C181.753 149.623 181.803 149.928 181.864 150.261C181.927 150.6 181.974 150.883 182.006 151.111C182.104 151.804 182.043 152.391 181.82 152.872C181.593 153.356 181.183 153.711 180.59 153.939ZM179.529 158.196L179.003 156.825L190.351 152.467L190.878 153.838L179.529 158.196ZM183.002 167.239L182.478 165.876L183.346 165.542C183.217 165.453 183.037 165.332 182.806 165.181C182.582 165.033 182.388 164.878 182.226 164.717C182.027 164.532 181.833 164.305 181.646 164.036C181.455 163.769 181.282 163.437 181.129 163.038C180.847 162.304 180.852 161.588 181.142 160.891C181.432 160.193 181.954 159.7 182.707 159.411C183.325 159.174 183.874 159.114 184.354 159.231C184.841 159.35 185.288 159.614 185.695 160.021C186.104 160.433 186.481 160.972 186.826 161.637C187.171 162.302 187.516 163.026 187.861 163.809L188.072 163.728C188.384 163.608 188.62 163.453 188.781 163.263C188.944 163.078 189.045 162.86 189.083 162.611C189.12 162.374 189.106 162.112 189.04 161.824C188.975 161.537 188.885 161.245 188.771 160.949C188.633 160.589 188.43 160.206 188.163 159.801C187.901 159.394 187.589 158.99 187.228 158.587L187.2 158.514L188.593 157.979C188.769 158.219 188.997 158.574 189.279 159.046C189.561 159.518 189.796 160 189.985 160.491C190.205 161.065 190.348 161.582 190.413 162.042C190.485 162.506 190.466 162.937 190.357 163.336C190.251 163.728 190.051 164.072 189.758 164.369C189.465 164.666 189.056 164.915 188.53 165.117L183.002 167.239ZM184.484 165.105L186.752 164.235C186.567 163.826 186.341 163.346 186.074 162.796C185.809 162.251 185.567 161.83 185.348 161.535C185.085 161.184 184.787 160.933 184.456 160.781C184.129 160.628 183.759 160.631 183.346 160.789C182.879 160.969 182.58 161.245 182.45 161.618C182.325 161.99 182.374 162.465 182.596 163.044C182.781 163.525 183.042 163.93 183.38 164.257C183.723 164.583 184.091 164.866 184.484 165.105ZM186.632 176.692L186.105 175.32L190.744 173.539C191.118 173.396 191.46 173.239 191.769 173.07C192.083 172.9 192.309 172.72 192.449 172.533C192.607 172.333 192.69 172.1 192.7 171.834C192.714 171.566 192.651 171.25 192.511 170.885C192.368 170.511 192.125 170.155 191.783 169.818C191.442 169.48 191.056 169.179 190.625 168.915L184.542 171.251L184.016 169.88L192.163 166.751L192.689 168.123L191.785 168.47C192.304 168.761 192.751 169.097 193.126 169.478C193.501 169.858 193.781 170.289 193.965 170.771C194.303 171.651 194.296 172.423 193.943 173.089C193.591 173.754 192.916 174.278 191.919 174.661L186.632 176.692ZM189.343 183.534C189.176 183.302 189.012 183.042 188.85 182.752C188.691 182.468 188.565 182.206 188.474 181.968C188.154 181.136 188.135 180.418 188.417 179.814C188.698 179.209 189.332 178.718 190.319 178.339L194.651 176.675L194.295 175.749L195.448 175.306L195.803 176.233L198.144 175.334L198.671 176.705L196.33 177.604L197.416 180.434L196.264 180.876L195.177 178.046L191.465 179.472C191.037 179.636 190.706 179.775 190.47 179.887C190.239 179.998 190.042 180.152 189.877 180.349C189.724 180.531 189.637 180.732 189.615 180.952C189.6 181.175 189.667 181.479 189.814 181.863C189.9 182.087 190.021 182.308 190.178 182.527C190.339 182.744 190.463 182.897 190.547 182.988L190.575 183.061L189.343 183.534ZM194.541 197.288L194.014 195.917L198.653 194.135C199.027 193.992 199.369 193.835 199.678 193.667C199.991 193.496 200.218 193.317 200.358 193.129C200.516 192.929 200.599 192.696 200.609 192.43C200.623 192.163 200.56 191.846 200.42 191.482C200.277 191.107 200.034 190.751 199.692 190.414C199.351 190.076 198.965 189.776 198.534 189.511L192.451 191.847L191.925 190.476L203.273 186.118L203.8 187.489L199.694 189.066C200.213 189.358 200.66 189.694 201.035 190.074C201.41 190.455 201.689 190.886 201.874 191.367C202.212 192.247 202.205 193.02 201.852 193.685C201.5 194.351 200.825 194.875 199.828 195.257L194.541 197.288ZM202.104 205.238L199.799 199.235C199.298 199.428 198.89 199.671 198.573 199.965C198.262 200.258 198.037 200.581 197.9 200.935C197.763 201.278 197.703 201.644 197.719 202.034C197.737 202.429 197.826 202.836 197.986 203.254C198.199 203.808 198.522 204.323 198.956 204.798C199.396 205.276 199.769 205.593 200.074 205.749L200.102 205.822L198.607 206.396C198.235 206.009 197.891 205.6 197.575 205.169C197.259 204.738 196.999 204.258 196.796 203.728C196.277 202.376 196.236 201.181 196.674 200.142C197.117 199.102 198.012 198.323 199.359 197.806C200.691 197.294 201.888 197.25 202.949 197.674C204.012 198.103 204.771 198.911 205.227 200.097C205.649 201.196 205.652 202.165 205.238 203.005C204.826 203.849 204.029 204.498 202.848 204.952L202.104 205.238ZM202.642 203.5C203.359 203.219 203.846 202.822 204.102 202.311C204.359 201.805 204.348 201.187 204.068 200.458C203.786 199.724 203.345 199.221 202.744 198.95C202.145 198.683 201.514 198.644 200.849 198.832L202.642 203.5ZM209.047 206.647L208.454 205.101L209.876 204.555L210.469 206.101L209.047 206.647ZM199.503 210.211L198.977 208.84L207.123 205.712L207.65 207.083L199.503 210.211ZM204.009 219.177C202.628 219.707 201.494 219.783 200.606 219.404C199.719 219.025 199.025 218.184 198.524 216.881C198.358 216.448 198.227 216.013 198.132 215.575C198.033 215.144 197.963 214.708 197.922 214.267L199.322 213.729L199.35 213.802C199.349 214.059 199.378 214.455 199.438 214.99C199.494 215.526 199.615 216.038 199.802 216.524C199.981 216.991 200.185 217.356 200.415 217.619C200.644 217.883 200.891 218.061 201.156 218.155C201.411 218.252 201.686 218.286 201.981 218.256C202.277 218.226 202.59 218.148 202.921 218.021L203.664 217.735C203.175 217.449 202.775 217.148 202.464 216.832C202.16 216.52 201.896 216.071 201.672 215.488C201.298 214.516 201.351 213.608 201.831 212.765C202.318 211.926 203.201 211.26 204.479 210.769C205.179 210.501 205.82 210.366 206.4 210.367C206.987 210.37 207.531 210.471 208.031 210.669C208.498 210.853 208.912 211.134 209.276 211.514C209.644 211.891 209.914 212.303 210.086 212.751C210.267 213.222 210.369 213.635 210.393 213.988C210.424 214.345 210.411 214.738 210.352 215.167L210.736 215.12L211.229 216.404L204.009 219.177ZM204.795 217.301L209.237 215.596C209.262 215.168 209.248 214.782 209.194 214.44C209.148 214.101 209.065 213.776 208.945 213.465C208.656 212.711 208.175 212.215 207.504 211.976C206.832 211.738 206.014 211.803 205.052 212.173C204.138 212.524 203.506 212.951 203.158 213.453C202.81 213.955 202.778 214.578 203.064 215.322C203.217 215.72 203.445 216.09 203.749 216.431C204.06 216.775 204.408 217.065 204.795 217.301ZM206.734 229.043L206.208 227.672L210.846 225.89C211.221 225.747 211.562 225.59 211.871 225.421C212.185 225.251 212.412 225.072 212.552 224.884C212.71 224.684 212.793 224.451 212.803 224.185C212.817 223.917 212.754 223.601 212.614 223.237C212.47 222.862 212.228 222.506 211.886 222.169C211.544 221.831 211.158 221.53 210.728 221.266L204.645 223.602L204.119 222.231L215.467 217.873L215.993 219.244L211.887 220.821C212.407 221.113 212.854 221.449 213.228 221.829C213.603 222.21 213.883 222.64 214.068 223.122C214.406 224.002 214.399 224.775 214.046 225.44C213.693 226.105 213.019 226.63 212.022 227.012L206.734 229.043ZM209.445 235.885C209.278 235.653 209.114 235.393 208.953 235.103C208.793 234.819 208.668 234.557 208.576 234.319C208.257 233.488 208.238 232.77 208.519 232.165C208.8 231.561 209.434 231.069 210.421 230.69L214.754 229.026L214.398 228.1L215.55 227.658L215.906 228.584L218.247 227.685L218.774 229.056L216.432 229.955L217.519 232.785L216.367 233.227L215.28 230.397L211.568 231.823C211.14 231.987 210.808 232.126 210.573 232.239C210.342 232.35 210.144 232.503 209.98 232.7C209.827 232.882 209.739 233.083 209.718 233.303C209.703 233.527 209.769 233.83 209.917 234.214C210.003 234.438 210.124 234.659 210.281 234.878C210.442 235.095 210.565 235.249 210.65 235.339L210.678 235.412L209.445 235.885Z" fill="#202020"/>
<path d="M164.228 348.461H164.149C163.931 348.409 163.717 348.373 163.509 348.352C163.306 348.326 163.063 348.313 162.782 348.313C162.329 348.313 161.892 348.415 161.47 348.618C161.048 348.816 160.642 349.073 160.251 349.391V355.586H158.782V346.86H160.251V348.149C160.834 347.68 161.347 347.349 161.79 347.157C162.238 346.959 162.694 346.86 163.157 346.86C163.412 346.86 163.597 346.868 163.712 346.883C163.826 346.894 163.998 346.917 164.228 346.954V348.461ZM172.392 355.586H170.931V354.657C170.8 354.745 170.623 354.87 170.399 355.032C170.181 355.188 169.967 355.313 169.759 355.407C169.514 355.527 169.233 355.625 168.915 355.704C168.597 355.787 168.225 355.829 167.798 355.829C167.011 355.829 166.345 355.568 165.798 355.047C165.251 354.527 164.978 353.862 164.978 353.055C164.978 352.394 165.118 351.86 165.399 351.454C165.686 351.042 166.092 350.719 166.618 350.485C167.149 350.25 167.787 350.092 168.532 350.008C169.277 349.925 170.076 349.862 170.931 349.821V349.594C170.931 349.261 170.871 348.985 170.751 348.766C170.636 348.547 170.47 348.375 170.251 348.25C170.043 348.131 169.793 348.05 169.501 348.008C169.209 347.967 168.905 347.946 168.587 347.946C168.201 347.946 167.772 347.998 167.298 348.102C166.824 348.201 166.334 348.347 165.829 348.54H165.751V347.047C166.037 346.969 166.451 346.883 166.993 346.79C167.535 346.696 168.069 346.649 168.595 346.649C169.209 346.649 169.743 346.701 170.196 346.805C170.655 346.904 171.05 347.076 171.384 347.321C171.712 347.56 171.962 347.87 172.134 348.25C172.306 348.631 172.392 349.102 172.392 349.665V355.586ZM170.931 353.438V351.008C170.483 351.034 169.954 351.073 169.345 351.125C168.741 351.178 168.261 351.253 167.907 351.352C167.485 351.472 167.144 351.659 166.884 351.915C166.623 352.165 166.493 352.511 166.493 352.954C166.493 353.454 166.644 353.831 166.946 354.086C167.248 354.336 167.709 354.461 168.329 354.461C168.845 354.461 169.316 354.362 169.743 354.165C170.17 353.961 170.566 353.719 170.931 353.438ZM182.298 355.586H180.829V354.672C180.407 355.037 179.967 355.321 179.509 355.524C179.05 355.727 178.553 355.829 178.017 355.829C176.975 355.829 176.147 355.428 175.532 354.625C174.923 353.823 174.618 352.711 174.618 351.29C174.618 350.55 174.722 349.891 174.931 349.313C175.144 348.735 175.431 348.243 175.79 347.836C176.144 347.441 176.556 347.139 177.024 346.93C177.498 346.722 177.988 346.618 178.493 346.618C178.951 346.618 179.358 346.667 179.712 346.766C180.066 346.86 180.438 347.008 180.829 347.211V343.43H182.298V355.586ZM180.829 353.438V348.43C180.433 348.253 180.079 348.131 179.767 348.063C179.454 347.995 179.113 347.961 178.743 347.961C177.92 347.961 177.28 348.248 176.821 348.821C176.363 349.394 176.134 350.206 176.134 351.258C176.134 352.295 176.311 353.084 176.665 353.625C177.019 354.162 177.587 354.43 178.368 354.43C178.785 354.43 179.207 354.339 179.634 354.157C180.061 353.969 180.459 353.73 180.829 353.438ZM186.767 345.399H185.11V343.875H186.767V345.399ZM186.673 355.586H185.204V346.86H186.673V355.586ZM196.813 355.586H195.345V354.618C194.85 355.008 194.376 355.308 193.923 355.516C193.47 355.724 192.97 355.829 192.423 355.829C191.506 355.829 190.793 355.55 190.282 354.993C189.772 354.43 189.517 353.607 189.517 352.524V346.86H190.985V351.829C190.985 352.271 191.006 352.652 191.048 352.969C191.09 353.282 191.178 353.55 191.313 353.774C191.454 354.003 191.636 354.17 191.86 354.274C192.084 354.378 192.41 354.43 192.837 354.43C193.217 354.43 193.631 354.331 194.079 354.133C194.532 353.935 194.954 353.683 195.345 353.375V346.86H196.813V355.586ZM205.938 353.071C205.938 353.868 205.608 354.521 204.946 355.032C204.29 355.542 203.392 355.797 202.251 355.797C201.605 355.797 201.011 355.722 200.47 355.571C199.933 355.415 199.483 355.245 199.118 355.063V353.415H199.196C199.66 353.764 200.175 354.042 200.743 354.25C201.311 354.454 201.855 354.555 202.376 354.555C203.022 354.555 203.527 354.451 203.892 354.243C204.256 354.034 204.438 353.706 204.438 353.258C204.438 352.915 204.34 352.654 204.142 352.477C203.944 352.3 203.563 352.149 203.001 352.024C202.793 351.977 202.519 351.922 202.181 351.86C201.847 351.797 201.543 351.73 201.267 351.657C200.501 351.454 199.957 351.157 199.634 350.766C199.316 350.37 199.157 349.886 199.157 349.313C199.157 348.954 199.23 348.615 199.376 348.297C199.527 347.98 199.754 347.696 200.056 347.446C200.347 347.201 200.717 347.008 201.165 346.868C201.618 346.722 202.123 346.649 202.681 346.649C203.201 346.649 203.728 346.714 204.259 346.844C204.795 346.969 205.241 347.123 205.595 347.305V348.875H205.517C205.142 348.599 204.686 348.368 204.149 348.18C203.613 347.987 203.087 347.891 202.571 347.891C202.035 347.891 201.582 347.995 201.212 348.204C200.842 348.407 200.657 348.711 200.657 349.118C200.657 349.477 200.769 349.748 200.993 349.93C201.212 350.112 201.566 350.261 202.056 350.375C202.326 350.438 202.629 350.5 202.962 350.563C203.3 350.625 203.582 350.683 203.806 350.735C204.488 350.891 205.014 351.159 205.384 351.54C205.754 351.925 205.938 352.435 205.938 353.071Z" fill="#202020"/>
<path d="M59.8901 369.23C59.8901 369.96 59.786 370.616 59.5776 371.199C59.3745 371.783 59.0985 372.272 58.7495 372.668C58.3797 373.079 57.9735 373.389 57.5308 373.598C57.0881 373.801 56.6011 373.902 56.0698 373.902C55.575 373.902 55.1427 373.842 54.7729 373.723C54.4032 373.608 54.0386 373.452 53.6792 373.254L53.5854 373.66H52.2104V361.504H53.6792V365.848C54.0907 365.509 54.5282 365.233 54.9917 365.02C55.4552 364.801 55.9761 364.691 56.5542 364.691C57.5854 364.691 58.3979 365.087 58.9917 365.879C59.5907 366.671 59.8901 367.788 59.8901 369.23ZM58.3745 369.27C58.3745 368.228 58.2026 367.439 57.8589 366.902C57.5151 366.361 56.9604 366.09 56.1948 366.09C55.7677 366.09 55.3354 366.184 54.8979 366.371C54.4604 366.553 54.0542 366.79 53.6792 367.082V372.082C54.0959 372.27 54.4526 372.4 54.7495 372.473C55.0516 372.546 55.3927 372.582 55.7729 372.582C56.5854 372.582 57.2209 372.316 57.6792 371.785C58.1427 371.249 58.3745 370.41 58.3745 369.27ZM68.9604 373.66H67.4995V372.73C67.3693 372.819 67.1922 372.944 66.9683 373.105C66.7495 373.262 66.536 373.387 66.3276 373.48C66.0828 373.6 65.8016 373.699 65.4839 373.777C65.1662 373.861 64.7938 373.902 64.3667 373.902C63.5802 373.902 62.9136 373.642 62.3667 373.121C61.8198 372.6 61.5464 371.936 61.5464 371.129C61.5464 370.467 61.687 369.934 61.9683 369.527C62.2547 369.116 62.661 368.793 63.187 368.559C63.7183 368.324 64.3563 368.165 65.1011 368.082C65.8459 367.999 66.6453 367.936 67.4995 367.895V367.668C67.4995 367.335 67.4396 367.059 67.3198 366.84C67.2052 366.621 67.0386 366.449 66.8198 366.324C66.6115 366.204 66.3615 366.124 66.0698 366.082C65.7782 366.04 65.4735 366.02 65.1558 366.02C64.7703 366.02 64.3407 366.072 63.8667 366.176C63.3927 366.275 62.9032 366.421 62.3979 366.613H62.3198V365.121C62.6063 365.043 63.0203 364.957 63.562 364.863C64.1037 364.77 64.6375 364.723 65.1636 364.723C65.7782 364.723 66.312 364.775 66.7651 364.879C67.2235 364.978 67.6193 365.15 67.9526 365.395C68.2808 365.634 68.5308 365.944 68.7026 366.324C68.8745 366.704 68.9604 367.176 68.9604 367.738V373.66ZM67.4995 371.512V369.082C67.0516 369.108 66.5229 369.147 65.9136 369.199C65.3094 369.251 64.8302 369.327 64.4761 369.426C64.0542 369.546 63.7131 369.733 63.4526 369.988C63.1922 370.238 63.062 370.585 63.062 371.027C63.062 371.527 63.2131 371.905 63.5151 372.16C63.8172 372.41 64.2782 372.535 64.8979 372.535C65.4136 372.535 65.8849 372.436 66.312 372.238C66.7391 372.035 67.1349 371.793 67.4995 371.512ZM78.0229 371.145C78.0229 371.941 77.6922 372.595 77.0308 373.105C76.3745 373.616 75.4761 373.871 74.3354 373.871C73.6896 373.871 73.0959 373.796 72.5542 373.645C72.0177 373.488 71.5672 373.319 71.2026 373.137V371.488H71.2808C71.7443 371.837 72.2599 372.116 72.8276 372.324C73.3953 372.527 73.9396 372.629 74.4604 372.629C75.1063 372.629 75.6115 372.525 75.9761 372.316C76.3407 372.108 76.5229 371.78 76.5229 371.332C76.5229 370.988 76.424 370.728 76.2261 370.551C76.0282 370.374 75.6479 370.223 75.0854 370.098C74.8771 370.051 74.6037 369.996 74.2651 369.934C73.9318 369.871 73.6271 369.803 73.3511 369.73C72.5854 369.527 72.0412 369.23 71.7183 368.84C71.4006 368.444 71.2417 367.96 71.2417 367.387C71.2417 367.027 71.3146 366.689 71.4604 366.371C71.6115 366.053 71.8381 365.77 72.1401 365.52C72.4318 365.275 72.8016 365.082 73.2495 364.941C73.7026 364.796 74.2078 364.723 74.7651 364.723C75.286 364.723 75.812 364.788 76.3433 364.918C76.8797 365.043 77.325 365.197 77.6792 365.379V366.949H77.6011C77.2261 366.673 76.7703 366.441 76.2339 366.254C75.6974 366.061 75.1714 365.965 74.6558 365.965C74.1193 365.965 73.6662 366.069 73.2964 366.277C72.9266 366.48 72.7417 366.785 72.7417 367.191C72.7417 367.551 72.8537 367.822 73.0776 368.004C73.2964 368.186 73.6506 368.335 74.1401 368.449C74.411 368.512 74.7131 368.574 75.0464 368.637C75.3849 368.699 75.6662 368.757 75.8901 368.809C76.5724 368.965 77.0985 369.233 77.4683 369.613C77.8381 369.999 78.0229 370.509 78.0229 371.145ZM87.437 369.449H81.0073C81.0073 369.986 81.0881 370.454 81.2495 370.855C81.411 371.251 81.6323 371.577 81.9136 371.832C82.1844 372.082 82.5047 372.27 82.8745 372.395C83.2495 372.52 83.661 372.582 84.1089 372.582C84.7026 372.582 85.299 372.465 85.8979 372.23C86.5021 371.991 86.9318 371.757 87.187 371.527H87.2651V373.129C86.7703 373.337 86.2651 373.512 85.7495 373.652C85.2339 373.793 84.6922 373.863 84.1245 373.863C82.6766 373.863 81.5464 373.473 80.7339 372.691C79.9214 371.905 79.5151 370.79 79.5151 369.348C79.5151 367.921 79.9032 366.788 80.6792 365.949C81.4604 365.111 82.4865 364.691 83.7573 364.691C84.9344 364.691 85.8407 365.035 86.4761 365.723C87.1167 366.41 87.437 367.387 87.437 368.652V369.449ZM86.0073 368.324C86.0021 367.553 85.8068 366.957 85.4214 366.535C85.0412 366.113 84.4604 365.902 83.6792 365.902C82.8927 365.902 82.2651 366.134 81.7964 366.598C81.3328 367.061 81.0698 367.637 81.0073 368.324H86.0073Z" fill="#202020"/>
<circle cx="120.482" cy="362.654" r="3.5" fill="#545454"/>
<path fill-rule="evenodd" clip-rule="evenodd" d="M134.477 347.298L134.477 361.298L132.477 361.298L132.477 347.298L134.477 347.298Z" fill="#E84846"/>
<path fill-rule="evenodd" clip-rule="evenodd" d="M134.33 349.32L120.33 349.32L120.33 347.32L134.33 347.32L134.33 349.32Z" fill="#E84846"/>
</svg>
